<svg xmlns="http://www.w3.org/2000/svg" xmlns:xlink="http://www.w3.org/1999/xlink" viewBox="0 0 363.42 348.16"><defs><style>.cls-1{fill:url(#linear-gradient);}.cls-2{fill:url(#linear-gradient-2);}.cls-3{fill:url(#linear-gradient-3);}.cls-4{fill:url(#linear-gradient-4);}.cls-5{fill:url(#linear-gradient-5);}.cls-6{font-size:60px;fill:#1d5990;font-family:MontserratAlternates-Medium, Montserrat Alternates;font-weight:500;}.cls-7{letter-spacing:0em;}.cls-8{letter-spacing:0em;}</style><linearGradient id="linear-gradient" y1="139.85" x2="132.23" y2="139.85" gradientUnits="userSpaceOnUse"><stop offset="0.01" stop-color="#bbd3c8"/><stop offset="0.38" stop-color="#41796d"/><stop offset="1" stop-color="#005845"/></linearGradient><linearGradient id="linear-gradient-2" x1="206.25" y1="286.16" x2="206.25" y2="142.85" gradientUnits="userSpaceOnUse"><stop offset="0" stop-color="#fff"/><stop offset="1" stop-color="#a4c4ca"/></linearGradient><linearGradient id="linear-gradient-3" x1="106.08" y1="144.81" x2="363.42" y2="144.81" gradientUnits="userSpaceOnUse"><stop offset="0" stop-color="#0c6e58"/><stop offset="0.37" stop-color="#4b9280"/><stop offset="0.63" stop-color="#75b7ac"/><stop offset="1" stop-color="#6c9aa9"/></linearGradient><linearGradient id="linear-gradient-4" x1="324.12" y1="117.78" x2="324.12" y2="72.94" gradientUnits="userSpaceOnUse"><stop offset="0" stop-color="#99bbc3"/><stop offset="1" stop-color="#a4c4ca"/></linearGradient><linearGradient id="linear-gradient-5" x1="186.77" y1="99.27" x2="362.1" y2="99.27" gradientUnits="userSpaceOnUse"><stop offset="0" stop-color="#6e9faa" stop-opacity="0.5"/><stop offset="1" stop-color="#6e9faa"/></linearGradient></defs><g id="Layer_2" data-name="Layer 2"><g id="Layer_4" data-name="Layer 4"><polygon class="cls-1" points="0 0 41.85 0 40.85 119.08 132.23 119.08 132.23 154.38 41.85 154.38 41.85 279.69 0 279.69 0 0"/><polygon class="cls-2" points="186.52 142.85 225.98 142.85 225.28 285.47 189.98 286.16 186.52 142.85"/><path class="cls-3" d="M339.19,68.66l24.23-23.54C311.27-5.1,233.31-14.06,175.81,21.59,126.42,52.21,98.31,111.9,108,170.43c1.22,7.39,13.57,74.86,78.23,105.92,70.31,33.78,136.17-7.3,139.85-9.69v19.39l35.31-.7L362,142.74H322.58L324,227.89c-43.15,34.08-102.67,33.72-141.23,1.39-33.28-27.91-44.39-74.16-32.54-113.54,14.72-48.85,61.51-76.26,104.54-78.23C300,35.43,331.66,62,339.19,68.66Z"/><polygon class="cls-4" points="336.77 72.94 336.77 117.78 311.48 92.48 311.48 72.94 336.77 72.94"/><polygon class="cls-5" points="362.1 143.11 322.59 143.11 274.21 94.72 225.83 143.11 186.77 143.11 274.44 55.44 311.48 92.48 336.77 117.78 362.1 143.11"/><text class="cls-6" transform="translate(2.38 332.38)">Ho<tspan class="cls-7" x="86.82" y="0">m</tspan><tspan class="cls-8" x="150.42" y="0">e Guru</tspan></text></g></g></svg>